HIERARCHY
ROOT Hips
{
  OFFSET 40.9192 92.6879 18.85
  CHANNELS 6 Xposition Yposition Zposition Zrotation Xrotation Yrotation
  JOINT LeftUpLeg
  {
    OFFSET 8.64259 1.95398 -2.38835
    CHANNELS 3 Zrotation Xrotation Yrotation
    JOINT LeftLeg
    {
      OFFSET 43.7702 0 0
      CHANNELS 3 Zrotation Xrotation Yrotation
      JOINT LeftFoot
      {
        OFFSET 40.6238 0 0
        CHANNELS 3 Zrotation Xrotation Yrotation
        JOINT LeftToeBase
        {
          OFFSET 12.7242 0 0
          CHANNELS 3 Zrotation Xrotation Yrotation
          End Site
          {
            OFFSET 0 0 0
          }
        }
      }
    }
  }
  JOINT RightUpLeg
  {
    OFFSET -8.2249 1.95398 -2.59336
    CHANNELS 3 Zrotation Xrotation Yrotation
    JOINT RightLeg
    {
      OFFSET 43.5653 0 0
      CHANNELS 3 Zrotation Xrotation Yrotation
      JOINT RightFoot
      {
        OFFSET 40.6238 0 0
        CHANNELS 3 Zrotation Xrotation Yrotation
        JOINT RightToeBase
        {
          OFFSET 12.7242 0 0
          CHANNELS 3 Zrotation Xrotation Yrotation
          End Site
          {
            OFFSET 0 0 0
          }
        }
      }
    }
  }
  JOINT Spine
  {
    OFFSET 0.165834 0.87714 6.61349
    CHANNELS 3 Zrotation Xrotation Yrotation
    JOINT Spine1
    {
      OFFSET 7.38963 1.71661e-005 0
      CHANNELS 3 Zrotation Xrotation Yrotation
      JOINT Spine2
      {
        OFFSET 11.9445 1.14441e-005 0
        CHANNELS 3 Zrotation Xrotation Yrotation
        JOINT Spine3
        {
          OFFSET 14.7254 4.19617e-005 0
          CHANNELS 3 Zrotation Xrotation Yrotation
          JOINT Spine4
          {
            OFFSET 10.9679 0 0
            CHANNELS 3 Zrotation Xrotation Yrotation
            JOINT RightShoulder
            {
              OFFSET 2.46616 -1.6653 3.69651
              CHANNELS 3 Zrotation Xrotation Yrotation
              JOINT RightArm
              {
                OFFSET 13.0012 0 0
                CHANNELS 3 Zrotation Xrotation Yrotation
                JOINT RightForeArm
                {
                  OFFSET 28.7848 1.52588e-005 0
                  CHANNELS 3 Zrotation Xrotation Yrotation
                  JOINT RightHand
                  {
                    OFFSET 26.5688 1.52588e-005 0
                    CHANNELS 3 Zrotation Xrotation Yrotation
                    End Site
                    {
                      OFFSET 0 0 0
                    }
                  }
                }
              }
            }
            JOINT LeftShoulder
            {
              OFFSET 2.38034 -1.29275 -3.7523
              CHANNELS 3 Zrotation Xrotation Yrotation
              JOINT LeftArm
              {
                OFFSET 16.3182 6.10351e-005 0
                CHANNELS 3 Zrotation Xrotation Yrotation
                JOINT LeftForeArm
                {
                  OFFSET 27.0901 0 0
                  CHANNELS 3 Zrotation Xrotation Yrotation
                  JOINT LeftHand
                  {
                    OFFSET 24.5451 1.52588e-005 0
                    CHANNELS 3 Zrotation Xrotation Yrotation
                    End Site
                    {
                      OFFSET 0 0 0
                    }
                  }
                }
              }
            }
            JOINT Neck
            {
              OFFSET 5.0226 -0.0266342 0
              CHANNELS 3 Zrotation Xrotation Yrotation
              JOINT Head
              {
                OFFSET 6.69363 2.86102e-005 0
                CHANNELS 3 Zrotation Xrotation Yrotation
                End Site
                {
                  OFFSET 0 0 0
                }
              }
            }
          }
        }
      }
    }
  }
}
MOTION
Frames:	15
Frame Time:	0.0416667
-31.5385 11.2339 11.2742 4.3736 -5.11776 78.3064 -172.811 6.55709 91.5993 -22.8009 31.3614 -1.58467 53.7129 -4.01567 -1.80625 72.8731 37.1808 5.97187 177.484 8.23023 87.9127 -30.3994 -20.9294 -6.6101 55.1938 0.957236 0.872908 55.0785 3.39965 12.3199 0.616893 6.84271 -90.5762 13.1927 0.946731 -1.27095 1.52142 0.889892 -1.31139 -21.0135 1.28492 -0.927702 -1.00084 1.2849 -0.927685 100.463 -37.7972 -85.143 -31.4839 41.6948 51.8744 -22.0746 0.693688 -137.743 -51.9135 -0.00450621 -1.90225 -93.8173 -42.521 70.8225 37.5593 -28.294 70.4347 14.6975 3.88976 -147.782 59.3112 7.22827 7.85604 32.7286 -19.6507 29.0881 -7.59738 -29.146 -30.5932 
-31.5599 11.2672 11.2785 4.32184 -5.05945 78.2927 -172.511 6.62335 91.746 -22.614 31.7354 -1.86427 53.823 -3.94816 -1.3735 73.7612 37.0493 4.2713 177.588 8.37706 87.9734 -30.5884 -21.0158 -6.70383 55.4512 0.872586 0.807333 55.0543 3.36438 12.1364 0.574077 6.88132 -90.6013 13.1148 0.850152 -1.30798 1.44345 0.791748 -1.34414 -21.0906 1.20393 -0.99204 -1.07795 1.20392 -0.992037 100.308 -37.1872 -85.459 -30.9787 42.7533 51.806 -21.0755 0.0452737 -137.79 -50.9703 0.368111 -2.77546 -93.4686 -43.3358 71.6378 36.7584 -27.9619 69.6623 14.593 3.96707 -147.702 60.8383 7.51532 7.96103 30.2165 -20.8281 27.1137 -3.53679 -29.8948 -29.5446 
-31.5512 11.2801 11.2869 4.37357 -4.98819 78.1753 -172.967 6.59485 91.4185 -22.8533 31.3506 -1.50727 53.9907 -3.78676 -1.49927 71.9462 35.9596 5.09794 177.471 8.31132 87.802 -30.5033 -21.0771 -6.64267 55.5243 0.826333 0.770661 54.9108 3.37218 12.319 0.600186 6.91153 -90.6219 13.0549 0.892505 -1.35361 1.38351 0.832071 -1.39161 -21.1505 1.25805 -1.02284 -1.13788 1.25805 -1.02285 100.774 -36.9766 -84.6076 -30.576 43.0753 50.8762 -19.1591 -2.46885 -137.882 -49.1464 0.272674 -2.9822 -94.0832 -43.9588 70.8589 38.7311 -27.8373 70.3513 13.7568 5.65945 -147.005 58.51 6.6497 7.06079 30.0398 -20.7146 27.2448 -4.78236 -29.5336 -30.1276 
-31.561 11.3151 11.3168 4.47896 -4.91704 78.1541 -173.003 6.53146 91.3998 -22.8296 31.4589 -1.46228 53.7714 -3.91252 -1.16503 73.4963 36.4653 3.55502 177.41 8.27664 87.7896 -30.5973 -20.9879 -6.63996 55.4531 0.873819 0.809155 55.0875 3.34958 12.0191 0.585042 6.95237 -90.6217 12.9728 0.863061 -1.34802 1.30145 0.802905 -1.38469 -21.2324 1.2283 -1.02634 -1.21978 1.22829 -1.02635 100.781 -36.9398 -84.6002 -30.3256 43.3439 50.9195 -18.835 -2.80062 -138.149 -49.2363 0.216219 -2.87498 -94.0164 -43.7403 70.8929 38.4882 -27.8588 70.3048 13.9733 5.68102 -146.554 59.6144 6.72778 6.95095 29.2778 -21.0846 27.0327 -4.58711 -29.695 -30.4823 
-31.5385 11.2828 11.3178 4.30154 -5.08474 78.2341 -172.864 6.6104 91.5166 -22.7349 31.3733 -1.56801 53.8727 -3.85086 -1.07013 73.627 36.3883 3.19095 177.606 8.40432 87.9468 -30.5663 -20.8804 -6.70476 55.4032 0.872264 0.807493 54.9772 3.41013 12.4788 0.422921 6.85173 -90.4897 13.1723 0.603566 -1.05483 1.50108 0.55655 -1.08034 -21.0329 0.892659 -0.824687 -1.02026 0.892658 -0.82467 99.4689 -39.8321 -86.8139 -31.8403 42.0913 50.8827 -18.7185 -2.5354 -137.938 -49.3841 0.0932429 -2.66771 -91.2421 -42.8495 75.0651 36.3266 -26.6843 68.6498 14.2907 4.24093 -146.326 60.5769 6.6093 6.5524 28.2275 -20.89 25.2808 -5.0956 -28.6099 -30.4982 
-31.5347 11.312 11.3073 4.45876 -4.87237 78.2594 -173.008 6.60258 91.4906 -22.9151 31.4493 -1.41491 53.8234 -3.88778 -1.31586 72.85 36.2088 4.09763 177.473 8.23674 87.9015 -30.4584 -20.8979 -6.60624 55.3461 0.895717 0.825484 54.9851 3.41954 12.5269 0.211072 6.76866 -90.3546 13.337 0.247482 -0.741451 1.66587 0.214622 -0.751648 -20.8682 0.458888 -0.632805 -0.85552 0.45888 -0.632806 98.0728 -43.2632 -88.9502 -34.8808 41.1538 51.5277 -18.2786 -3.23267 -137.821 -49.0019 0.0779368 -2.75494 -88.6506 -41.9105 79.0537 33.5278 -25.2708 66.7812 14.6685 2.24149 -146.774 58.9942 7.46002 8.31973 27.214 -20.4922 23.934 -5.75125 -27.4739 -30.9251 
-31.5199 11.2908 11.3113 4.37919 -5.06094 78.3583 -172.88 6.66932 91.6191 -22.9918 31.4392 -1.49797 53.7068 -3.99166 -1.15207 73.2704 36.1081 3.21331 177.573 8.25057 88.0033 -30.3862 -21.0461 -6.63295 55.2364 0.922484 0.845032 55.0573 3.40797 12.3896 0.0969163 6.64297 -90.2236 13.5879 0.0837945 -0.458521 1.91687 0.0635317 -0.461763 -20.6178 0.217708 -0.412129 -0.60511 0.217725 -0.412145 96.6978 -46.0633 -90.9358 -36.7228 39.4437 51.9499 -17.9533 -3.07292 -137.697 -49.0909 0.0591796 -2.78327 -86.9763 -40.057 81.4449 31.7717 -23.8314 66.337 14.858 1.37851 -146.405 60.2034 7.12638 7.47566 24.5875 -20.6805 22.0188 -4.66625 -26.865 -30.7339 
-31.5085 11.2965 11.3082 4.40746 -5.02127 78.3543 -172.891 6.63178 91.6058 -22.9265 31.4645 -1.49006 53.6749 -4.00135 -1.09007 73.2102 35.9381 2.97001 177.596 8.25801 88.0175 -30.482 -21.1032 -6.68368 55.3019 0.909164 0.835836 54.7262 3.32493 12.2163 -0.0318144 6.56384 -90.1288 13.7459 -0.125651 -0.241502 2.07498 -0.136156 -0.235756 -20.46 -0.0472564 -0.268114 -0.447351 -0.0472663 -0.268129 95.1736 -47.9694 -93.1349 -38.1315 38.2038 52.2947 -18.6346 -1.53475 -137.393 -49.9459 0.145901 -2.84254 -85.6504 -39.242 83.548 30.4546 -22.7612 65.6021 14.8467 0.694515 -146.422 60.4108 7.17585 7.50839 23.8814 -20.4056 21.5454 -5.29886 -26.2095 -31.0953 
-31.5332 11.3047 11.3103 4.29539 -4.93748 78.3004 -172.934 6.77893 91.5546 -22.9613 31.3732 -1.47997 53.9107 -3.83663 -1.3159 73.0382 36.2156 3.80225 177.608 8.36444 87.9746 -30.4413 -20.9665 -6.66947 55.2877 0.904036 0.831722 55.1438 3.43149 12.4436 -0.140135 6.51546 -90.0282 13.843 -0.291532 -0.0176864 2.17206 -0.292001 -0.00482326 -20.3633 -0.272732 -0.10448 -0.350687 -0.272718 -0.104461 94.9995 -50.1479 -93.1017 -37.0597 36.853 49.6411 -17.9807 -0.937716 -136.649 -50.7127 0.0366974 -2.74714 -84.3759 -38.2805 85.5885 29.0606 -22.029 64.7128 14.7212 -0.0626954 -146.646 58.0703 7.32524 8.32508 23.2466 -20.4436 19.8831 -4.76025 -25.7791 -30.2395 
-31.518 11.273 11.3158 4.29209 -4.90773 78.2291 -172.979 6.66741 91.4702 -22.7616 31.3692 -1.46569 53.6974 -3.97026 -1.19006 73.2241 36.0551 3.18131 177.581 8.43802 87.9325 -30.6056 -20.9608 -6.72028 55.2607 0.939593 0.860352 55.3498 3.44258 12.312 -0.219644 6.48755 -89.9562 13.8992 -0.413936 0.143208 2.22834 -0.407235 0.161267 -20.3073 -0.437856 0.0121774 -0.294684 -0.437845 0.0121697 94.1899 -51.5178 -94.1429 -38.4276 36.9083 49.8139 -17.9892 -1.23858 -136.674 -49.3385 0.117791 -2.98467 -83.5063 -37.7522 87.0307 28.4296 -21.64 64.1258 14.8457 -0.384541 -146.412 60.5352 7.15888 7.45158 23.1918 -20.2538 18.9374 -4.93186 -25.269 -29.7194 
-31.4799 11.2394 11.3048 4.21319 -4.95812 78.3007 -172.985 6.76238 91.5089 -22.9485 31.3503 -1.44745 53.9602 -3.78441 -1.08292 72.0408 35.3665 3.73677 177.599 8.44325 87.9715 -30.4571 -20.9356 -6.66267 55.0105 1.0138 0.916031 55.5146 3.45467 12.229 -0.274252 6.45533 -89.9202 13.9639 -0.504606 0.227944 2.293 -0.494076 0.249949 -20.2429 -0.549795 0.0657611 -0.230271 -0.549782 0.0657518 93.5744 -53.004 -94.8393 -39.1327 36.4639 49.139 -17.9025 -1.10163 -136.337 -49.7569 0.135867 -3.05048 -82.9275 -37.3998 88.0036 27.6598 -21.2091 63.6389 14.536 -0.319226 -146.414 60.126 7.25915 7.71086 22.3135 -20.1486 18.6886 -4.79759 -25.0188 -30.0434 
-31.4753 11.2374 11.3074 4.23669 -4.99225 78.2408 -173.022 6.7045 91.4426 -23.0073 31.0767 -1.41832 54.1796 -3.61076 -1.10259 71.8901 35.0506 3.34556 177.599 8.41453 87.9178 -30.4982 -20.9786 -6.69723 55.0887 0.980128 0.890083 55.6615 3.4358 11.985 -0.308867 6.44126 -89.8899 13.9922 -0.558336 0.29631 2.32132 -0.54473 0.320593 -20.2147 -0.621579 0.114803 -0.202088 -0.62157 0.114824 92.9454 -53.8769 -95.6309 -39.7088 36.0682 49.0916 -17.7801 -0.889648 -136.24 -50.3572 -0.00750211 -2.74518 -82.7842 -37.1187 88.2225 28.2608 -21.3366 64.1484 14.955 -0.764737 -146.527 59.6686 7.37672 8.0154 21.8487 -19.7903 18.7298 -4.57052 -24.6881 -30.078 
-31.4555 11.2308 11.3061 4.23229 -5.01963 78.2637 -172.962 6.77506 91.4819 -23.1851 31.0418 -1.46925 54.294 -3.55034 -1.35764 70.0099 34.2385 4.88286 177.596 8.41829 87.9473 -30.4811 -20.8075 -6.6638 55.0898 0.976303 0.888155 55.4444 3.43438 12.177 -0.3347 6.44193 -89.8748 13.9911 -0.602163 0.332566 2.32022 -0.586941 0.35874 -20.216 -0.674272 0.136218 -0.203304 -0.674281 0.136197 92.0341 -54.4628 -96.8667 -41.5729 36.5665 50.256 -17.924 -1.61485 -136.416 -48.8965 0.173654 -3.15164 -82.7315 -37.1108 88.3152 28.7482 -21.1938 64.3393 14.9574 -0.640999 -146.405 60.0109 7.24182 7.71162 21.0102 -19.6932 18.436 -3.55905 -24.6409 -29.736 
-31.4588 11.2197 11.2619 4.23005 -5.06149 78.3152 -172.853 6.72998 91.497 -23.1974 30.9462 -1.57091 54.5148 -3.39385 -1.34909 69.8424 34.1627 5.0187 177.594 8.37903 87.9629 -30.4545 -20.7363 -6.64889 55.0873 0.974856 0.888328 55.0423 3.4443 12.6164 -0.355586 6.49277 -89.8844 13.8894 -0.648466 0.318626 2.21855 -0.633823 0.346852 -20.3179 -0.714241 0.108994 -0.305198 -0.71424 0.109002 92.1547 -54.2564 -96.7291 -40.3329 36.4617 48.7922 -18.1806 -1.10742 -136.059 -49.928 0.153772 -3.09027 -82.4595 -37.256 88.8144 28.1003 -21.2699 63.8036 15.021 -0.803508 -146.51 61.7318 7.6093 7.89628 21.6853 -19.4957 18.6332 -3.77217 -24.5431 -29.3884 
-31.4777 11.2197 11.2429 4.23443 -5.04734 78.3409 -172.76 6.61323 91.5045 -22.9465 30.6922 -1.6468 54.8962 -3.1318 -1.84873 67.8178 34.0373 8.44883 177.564 8.42796 87.9839 -30.6165 -20.7153 -6.62988 55.4246 0.862166 0.803014 54.9299 3.32238 12.0011 -0.365886 6.50092 -89.8985 13.8731 -0.675785 0.293862 2.20231 -0.662184 0.323286 -20.3342 -0.732862 0.0771554 -0.321576 -0.732845 0.077144 91.2181 -53.4749 -98.2488 -40.8982 36.0389 49.9814 -18.3749 -1.41921 -136.249 -49.7897 0.245826 -3.27217 -82.7223 -37.1082 88.3315 26.9088 -20.7276 63.4422 15.5305 -1.68167 -146.323 62.6656 7.96361 8.18155 19.754 -19.5819 18.811 -1.96073 -24.8633 -29.973 
